<svg version="1.0" xmlns="http://www.w3.org/2000/svg" width="400" height="400" viewBox="0 0 300 300"><path d="M114.2 5.2c-10.1 1.2-28.1 5.9-37.5 9.7C55.3 23.4 34 40.8 27 55.6c-4.1 8.5-6 17.5-6.9 32.8-.4 7.2-.5 57.2-.2 111.1l.6 98h77l.3-40.3.2-40.2 16.8.2 16.7.3 21.5 40.2 21.5 40.3h49.2c28.5 0 49.3-.4 49.3-.9s-13.9-23.8-31-51.7c-24-39.5-30.6-51.2-29.7-52.1.7-.6 8.1-4.8 16.6-9.2 18.1-9.5 25.4-14.6 33.7-23.3 11.3-11.7 18.2-24.3 24.9-45C295.2 92 292 83.9 272 77.5c-8.9-2.9-43.9-19.7-50.7-24.3-4-2.7-9-7.6-13.7-13.5-11.5-14.3-26.4-24.4-45.1-30.6-14.8-4.9-30.5-6.2-48.3-3.9m51 47c10.7 5 18.7 15.9 20.9 28.5 2.3 12.8-3.2 28.8-10.8 32-14.2 5.9-33.8 2.5-50.1-8.6-7.1-4.8-10.6-9.6-12.7-17.9-2.6-9.9.3-19.2 8.5-26.6 8.3-7.5 17.3-10.6 29.5-10.3 7.3.2 10.1.7 14.7 2.9" fill="currentColor"/></svg>